<?xml version="1.0" encoding="UTF-8" standalone="no"?>
<!-- Generator: Adobe Illustrator 25.0.0, SVG Export Plug-In . SVG Version: 6.00 Build 0)  -->

<svg
   version="1.1"
   id="_x38_8ce59e9-c4b8-4d1d-9d7a-ce0190159aa8"
   x="0px"
   y="0px"
   viewBox="0 0 231.8 231.8"
   style="enable-background:new 0 0 231.8 231.8;"
   xml:space="preserve"
   sodipodi:docname="blank_user.svg"
   inkscape:version="1.3.2 (091e20ef0f, 2023-11-25, custom)"
   xmlns:inkscape="http://www.inkscape.org/namespaces/inkscape"
   xmlns:sodipodi="http://sodipodi.sourceforge.net/DTD/sodipodi-0.dtd"
   xmlns="http://www.w3.org/2000/svg"
   xmlns:svg="http://www.w3.org/2000/svg"><defs
   id="defs12" /><sodipodi:namedview
   id="namedview12"
   pagecolor="#505050"
   bordercolor="#eeeeee"
   borderopacity="1"
   inkscape:showpageshadow="0"
   inkscape:pageopacity="0"
   inkscape:pagecheckerboard="0"
   inkscape:deskcolor="#d1d1d1"
   inkscape:zoom="1.4213513"
   inkscape:cx="163.92851"
   inkscape:cy="114.32782"
   inkscape:window-width="1366"
   inkscape:window-height="699"
   inkscape:window-x="0"
   inkscape:window-y="0"
   inkscape:window-maximized="1"
   inkscape:current-layer="_x38_8ce59e9-c4b8-4d1d-9d7a-ce0190159aa8" />
<style
   type="text/css"
   id="style1">
	.st0{opacity:0.5;}
	.st1{fill:url(#SVGID_1_);}
	.st2{fill:#F5F5F5;}
	.st3{fill:#4E73DF;}
	.st4{fill:#72351C;}
	.st5{opacity:0.1;enable-background:new    ;}
	.st6{fill:#FDA57D;}
</style>

<path
   id="circle4"
   style="fill:#999999;fill-opacity:1"
   class="st2"
   d="M 204.05859,186.34766 A 97.683746,58.025597 0 0 0 115.01367,152.14648 97.683746,58.025597 0 0 0 27.17969,185.06055 113.4,113.4 0 0 0 116.09961,228.5 113.4,113.4 0 0 0 204.05859,186.34766 Z" /><path
   id="path12"
   style="fill:#ececec"
   class="st2"
   d="M 116.09961 1.6992188 A 113.4 113.4 0 0 0 2.6992188 115.09961 A 113.4 113.4 0 0 0 27.179688 185.06055 A 97.683746 58.025597 0 0 1 115.01367 152.14648 A 97.683746 58.025597 0 0 1 204.05859 186.34766 A 113.4 113.4 0 0 0 229.5 115.09961 A 113.4 113.4 0 0 0 116.09961 1.6992188 z " />





<circle
   class="st6"
   cx="115.01445"
   cy="89.049301"
   r="55.148273"
   id="circle7"
   style="stroke-width:1.09639;fill:#999999" />






</svg>
