<?xml version="1.0" encoding="UTF-8" standalone="no"?>
<!-- Created with Inkscape (http://www.inkscape.org/) -->

<svg
   width="42.614342"
   height="35"
   viewBox="0 0 11.275044 9.2604167"
   version="1.1"
   id="svg1"
   inkscape:version="1.3.2 (091e20ef0f, 2023-11-25, custom)"
   sodipodi:docname="logo_symbology.svg"
   xmlns:inkscape="http://www.inkscape.org/namespaces/inkscape"
   xmlns:sodipodi="http://sodipodi.sourceforge.net/DTD/sodipodi-0.dtd"
   xmlns="http://www.w3.org/2000/svg"
   xmlns:svg="http://www.w3.org/2000/svg">
  <sodipodi:namedview
     id="namedview1"
     pagecolor="#ffffff"
     bordercolor="#000000"
     borderopacity="0.25"
     inkscape:showpageshadow="2"
     inkscape:pageopacity="0.0"
     inkscape:pagecheckerboard="0"
     inkscape:deskcolor="#d1d1d1"
     inkscape:document-units="mm"
     inkscape:zoom="10.582793"
     inkscape:cx="16.961496"
     inkscape:cy="16.111059"
     inkscape:window-width="1920"
     inkscape:window-height="1011"
     inkscape:window-x="0"
     inkscape:window-y="0"
     inkscape:window-maximized="1"
     inkscape:current-layer="layer1" />
  <defs
     id="defs1" />
  <g
     inkscape:label="Layer 1"
     inkscape:groupmode="layer"
     id="layer1"
     transform="translate(-33.221364,-96.579685)">
    <g
       id="g3"
       transform="matrix(0.1023748,0,0,0.1023748,29.818104,86.690528)">
      <path
         id="path1-2-4-2-8-3"
         style="fill:#274698;stroke-width:0.171796"
         d="m 73.728814,96.579685 c -18.349255,0.04168 -17.879636,1.529802 -30.063846,22.633385 -13.924805,24.11856 -13.924805,21.11297 0,45.23152 11.596778,20.08615 11.789488,22.39495 27.596629,22.60783 l 3.16951,-12.38598 c -11.478149,-0.15463 -11.618154,-1.83091 -20.038984,-16.41627 -10.11133,-17.51327 -10.11133,-15.33105 0,-32.8444 8.847371,-15.32411 8.50669,-16.40445 21.830742,-16.43495 1.90343,-0.007 4.085623,0.0134 6.613451,0.0134 3.379291,0 6.098335,-0.0255 8.401875,0.007 l 3.16915,-12.38437 c -3.17231,-0.04243 -6.916884,-0.0074 -11.570684,-0.0074 -3.481205,0 -6.486515,-0.02359 -9.107843,-0.01691 z" />
      <path
         id="path1-2-4-6-9-5-9"
         style="fill:#ff7f2a;stroke-width:0.171796"
         d="m 105.35967,96.599118 -3.17051,12.390112 0.001,-0.007 c 11.47815,0.1546 11.61811,1.83114 20.039,16.41654 10.11128,17.51332 10.11128,15.33106 0,32.84442 -8.84742,15.32416 -8.50637,16.40406 -21.83045,16.43468 -1.903439,0.007 -4.085619,-0.0119 -6.613449,-0.0119 -3.37931,0 -6.098634,0.0251 -8.402214,-0.007 l -0.001,0.007 -3.168157,12.38041 c 3.172327,0.0424 6.916891,0.007 11.570691,0.007 3.4812,0 6.486509,0.0236 9.107829,0.0169 18.34928,-0.0417 17.87965,-1.52975 30.06387,-22.63347 13.92481,-24.11847 13.92481,-21.11293 0,-45.23143 C 121.35947,99.119218 121.16679,96.810415 105.35964,96.597575 Z" />
      <g
         id="path23-5-9">
        <path
           style="color:#000000;fill:#ffff00;stroke-linecap:square;-inkscape-stroke:none;paint-order:fill markers stroke"
           d="M 121.97767,119.43833 81.343185,142.89869"
           id="path5" />
        <path
           style="color:#000000;fill:#ff7f2a;stroke-linecap:square;-inkscape-stroke:none;paint-order:fill markers stroke"
           d="m 122.4082,117.83008 -1.01953,0.58789 -40.634764,23.46094 -1.019531,0.58789 1.177734,2.04101 1.019532,-0.58984 40.634769,-23.45899 1.01953,-0.58984 z"
           id="path6" />
      </g>
      <path
         id="path24-4-0"
         style="fill:#ff7f2a;stroke-width:1.54861;stroke-linecap:square;paint-order:fill markers stroke"
         transform="rotate(150)"
         d="m 11.068544,-164.42538 a 7.5111775,7.5111775 0 0 1 -7.5111774,7.51117 7.5111775,7.5111775 0 0 1 -7.5111775,-7.51117 7.5111775,7.5111775 0 0 1 7.5111775,-7.51118 7.5111775,7.5111775 0 0 1 7.5111774,7.51118 z" />
      <g
         id="path23-37-15-2">
        <path
           style="color:#000000;fill:#ffff00;stroke-linecap:square;-inkscape-stroke:none;paint-order:fill markers stroke"
           d="M 60.758556,171.69132 92.545961,153.33899"
           id="path7" />
        <path
           style="color:#000000;fill:#274698;stroke-linecap:square;-inkscape-stroke:none;paint-order:fill markers stroke"
           d="m 92.976562,151.73047 -1.019531,0.58789 -31.787109,18.35351 -1.019531,0.5879 1.177734,2.03906 1.019531,-0.58789 31.78711,-18.35157 1.019531,-0.58984 z"
           id="path8" />
      </g>
      <path
         id="path24-9-5-4"
         style="fill:#274698;stroke-width:2.35492;stroke-linecap:square;paint-order:fill markers stroke"
         transform="rotate(-29.999999)"
         d="m 18.976211,179.06856 a 7.5111775,7.5111775 0 0 1 -7.511177,7.51118 7.5111775,7.5111775 0 0 1 -7.511178,-7.51118 7.5111775,7.5111775 0 0 1 7.511178,-7.51118 7.5111775,7.5111775 0 0 1 7.511177,7.51118 z" />
      <g
         id="path23-37-1-4-7">
        <path
           style="color:#000000;fill:#ffff00;stroke-linecap:square;-inkscape-stroke:none;paint-order:fill markers stroke"
           d="m 45.736172,145.67179 31.787366,-18.3524"
           id="path9" />
        <path
           style="color:#000000;fill:#274698;stroke-linecap:square;-inkscape-stroke:none;paint-order:fill markers stroke"
           d="m 77.955078,125.71094 -1.019531,0.58789 -31.789063,18.35351 -1.019531,0.58789 1.177734,2.03907 1.019532,-0.58789 31.787109,-18.35157 1.021484,-0.58984 z"
           id="path10" />
      </g>
      <path
         id="path24-9-7-9-6"
         style="fill:#274698;stroke-width:2.35492;stroke-linecap:square;paint-order:fill markers stroke"
         transform="rotate(-29.999999)"
         d="m 18.976211,149.02373 a 7.5111775,7.5111775 0 0 1 -7.511177,7.51117 7.5111775,7.5111775 0 0 1 -7.511178,-7.51117 7.5111775,7.5111775 0 0 1 7.511178,-7.51118 7.5111775,7.5111775 0 0 1 7.511177,7.51118 z" />
    </g>
  </g>
</svg>
