<?xml version="1.0" encoding="UTF-8" standalone="no"?>
<!-- Created with Inkscape (http://www.inkscape.org/) -->

<svg
   width="122.59586"
   height="35"
   viewBox="0 0 32.436823 9.2604167"
   version="1.1"
   id="svg1"
   inkscape:version="1.3.2 (091e20ef0f, 2023-11-25, custom)"
   sodipodi:docname="logo_typography.svg"
   xmlns:inkscape="http://www.inkscape.org/namespaces/inkscape"
   xmlns:sodipodi="http://sodipodi.sourceforge.net/DTD/sodipodi-0.dtd"
   xmlns="http://www.w3.org/2000/svg"
   xmlns:svg="http://www.w3.org/2000/svg">
  <sodipodi:namedview
     id="namedview1"
     pagecolor="#ffffff"
     bordercolor="#000000"
     borderopacity="0.25"
     inkscape:showpageshadow="2"
     inkscape:pageopacity="0.0"
     inkscape:pagecheckerboard="0"
     inkscape:deskcolor="#d1d1d1"
     inkscape:document-units="mm"
     inkscape:zoom="7.4831649"
     inkscape:cx="50.179303"
     inkscape:cy="-0.86861643"
     inkscape:window-width="1920"
     inkscape:window-height="1011"
     inkscape:window-x="0"
     inkscape:window-y="0"
     inkscape:window-maximized="1"
     inkscape:current-layer="layer1" />
  <defs
     id="defs1" />
  <g
     inkscape:label="Layer 1"
     inkscape:groupmode="layer"
     id="layer1"
     transform="translate(-150.58949,-96.550044)">
    <g
       id="g4"
       transform="matrix(0.10230082,0,0,0.10230082,135.18407,86.672896)">
      <path
         d="m 166.74484,142.87501 c 11.93808,0 18.55593,-5.70952 18.55593,-14.72797 0,-16.54463 -22.25414,-11.5488 -22.25414,-18.23153 0,-2.27083 2.53035,-3.50357 6.94225,-3.50357 3.63333,0 7.65595,0.64881 10.83511,1.75179 l 3.11428,-8.953569 c -3.76309,-1.686903 -8.75892,-2.660117 -13.36546,-2.660117 -11.41904,0 -19.20475,5.969046 -19.20475,15.052366 0,15.31189 22.12439,10.96487 22.12439,17.90713 0,2.07619 -1.94643,3.24405 -6.29345,3.24405 -4.08749,0 -9.01844,-0.77858 -13.49522,-2.66012 l -3.11429,9.21309 c 4.60655,2.07618 10.57559,3.56845 16.15535,3.56845 z m 25.04405,-0.64881 h 32.31069 v -9.8619 h -21.08629 v -8.04523 h 19.26962 v -9.8619 h -19.26962 v -7.39642 h 21.08629 v -9.861897 h -32.31069 z m 40.16124,0 h 10.89999 v -29.71545 l -1.36249,1.75178 10.70534,21.02141 h 8.4994 l 10.25118,-21.02141 -0.71369,-1.42738 v 29.39105 h 10.89999 V 97.198853 h -10.70534 l -15.6363,30.623787 h 4.60654 L 242.78524,97.198853 h -10.83511 z m 79.34932,0.64881 c 4.86606,0 10.44582,-1.29762 13.88451,-3.17917 l -2.46547,-8.11011 c -2.59524,0.90833 -5.90417,1.42738 -8.69404,1.42738 -9.01845,0 -14.20892,-5.32023 -14.20892,-14.07916 0,-8.23987 4.60654,-12.45713 12.78154,-12.45713 3.50356,0 7.59106,0.64881 10.05653,1.68691 l 3.11429,-8.823807 c -4.34702,-1.881546 -8.56428,-2.789879 -13.04106,-2.789879 -14.46844,0 -24.58986,9.342846 -24.58986,23.486886 0,13.68987 9.47261,22.83808 23.16248,22.83808 z m 20.3077,-0.64881 h 11.41904 V 97.198853 h -11.41904 z m 30.36431,0 h 11.02975 v -35.16545 h 14.01428 v -9.861897 h -38.92854 v 9.861897 h 13.88451 z m 30.10475,0 h 32.31069 v -9.8619 h -21.0863 v -8.04523 h 19.26963 v -9.8619 H 403.3006 v -7.39642 h 21.0863 v -9.861897 h -32.31069 z m 61.11778,0.64881 c 4.86607,0 10.44583,-1.29762 13.88452,-3.17917 l -2.46548,-8.11011 c -2.59523,0.90833 -5.90416,1.42738 -8.69404,1.42738 -9.01844,0 -14.20891,-5.32023 -14.20891,-14.07916 0,-8.23987 4.60654,-12.45713 12.78153,-12.45713 3.50357,0 7.59107,0.64881 10.05654,1.68691 l 3.11428,-8.823807 c -4.34702,-1.881546 -8.56427,-2.789879 -13.04106,-2.789879 -14.46844,0 -24.58986,9.342846 -24.58986,23.486886 0,13.68987 9.47261,22.83808 23.16248,22.83808 z"
         id="text1-5-3-8-9-8-3-7"
         style="font-weight:800;font-size:64.8809px;font-family:Cantarell;-inkscape-font-specification:'Cantarell Ultra-Bold';fill:#274698;stroke-width:1.2562"
         aria-label="SEMCITEC" />
      <path
         d="m 163.06311,187.07147 c 8.33464,0 13.66427,-4.36576 13.66427,-10.82936 0,-13.72096 -23.24627,-7.71095 -23.24627,-19.56088 0,-5.04614 4.02558,-7.88105 10.94276,-7.88105 3.40189,0 6.91718,0.68038 9.86548,2.04114 l 0.73708,-1.92774 c -3.1184,-1.53085 -6.80378,-2.21123 -10.26237,-2.21123 -8.44804,0 -13.66427,3.96887 -13.66427,10.37577 0,13.43747 23.13287,7.82435 23.13287,19.56088 0,4.98944 -4.08228,8.33463 -10.88606,8.33463 -3.74208,0 -8.05114,-0.96386 -12.02002,-2.77821 l -0.73707,1.92774 c 4.02557,1.92774 8.44803,2.94831 12.4736,2.94831 z m 31.69434,-0.56698 h 2.32462 v -18.20013 l 13.49418,-21.14842 h -2.55142 l -12.24681,19.50418 h 0.51028 l -12.36021,-19.50418 h -2.77821 l 13.60757,21.14842 z m 32.88491,0.56698 c 8.33463,0 13.66426,-4.36576 13.66426,-10.82936 0,-13.72096 -23.24626,-7.71095 -23.24626,-19.56088 0,-5.04614 4.02557,-7.88105 10.94275,-7.88105 3.4019,0 6.91718,0.68038 9.86549,2.04114 l 0.73708,-1.92774 c -3.1184,-1.53085 -6.80379,-2.21123 -10.26238,-2.21123 -8.44803,0 -13.66426,3.96887 -13.66426,10.37577 0,13.43747 23.13286,7.82435 23.13286,19.56088 0,4.98944 -4.08227,8.33463 -10.88605,8.33463 -3.74208,0 -8.05115,-0.96386 -12.02002,-2.77821 l -0.73708,1.92774 c 4.02557,1.92774 8.44803,2.94831 12.47361,2.94831 z m 31.07065,-0.56698 h 2.38133 v -37.30742 h 13.60757 v -2.04113 h -29.59646 v 2.04113 h 13.60756 z m 23.01948,0 h 23.13287 v -1.98444 h -20.75154 v -17.51974 h 19.22069 v -2.04114 h -19.22069 v -15.7621 h 20.75154 v -2.04113 h -23.13287 z m 32.94162,0 h 2.26793 v -36.51364 h -0.56698 l 15.19512,30.39023 h 1.98443 l 15.36521,-30.33354 h -0.51028 v 36.45695 h 2.26793 v -39.34855 h -2.49472 l -16.21569,32.14787 h 1.36076 l -15.98889,-32.14787 h -2.66482 z"
         id="text1-7-7-8-7-10-2-4-5"
         style="font-weight:300;font-size:56.6982px;font-family:Cantarell;-inkscape-font-specification:'Cantarell Light';fill:#e9681f;stroke-width:1.05645"
         aria-label="SYSTEM" />
    </g>
  </g>
</svg>
