<?xml version="1.0" encoding="UTF-8" standalone="no"?>
<!-- Created with Inkscape (http://www.inkscape.org/) -->

<svg
   width="543.81323"
   height="145.23199"
   viewBox="0 0 143.88392 38.425965"
   version="1.1"
   id="svg1"
   inkscape:version="1.3.2 (091e20ef0f, 2023-11-25, custom)"
   sodipodi:docname="SemcitecSystemLogo.svg"
   xmlns:inkscape="http://www.inkscape.org/namespaces/inkscape"
   xmlns:sodipodi="http://sodipodi.sourceforge.net/DTD/sodipodi-0.dtd"
   xmlns="http://www.w3.org/2000/svg"
   xmlns:svg="http://www.w3.org/2000/svg">
  <sodipodi:namedview
     id="namedview1"
     pagecolor="#ffffff"
     bordercolor="#000000"
     borderopacity="0.25"
     inkscape:showpageshadow="2"
     inkscape:pageopacity="0.0"
     inkscape:pagecheckerboard="0"
     inkscape:deskcolor="#d1d1d1"
     inkscape:document-units="mm"
     inkscape:zoom="1.3228492"
     inkscape:cx="204.86085"
     inkscape:cy="52.538114"
     inkscape:window-width="1920"
     inkscape:window-height="1011"
     inkscape:window-x="0"
     inkscape:window-y="0"
     inkscape:window-maximized="1"
     inkscape:current-layer="layer1">
    <inkscape:page
       x="0"
       y="0"
       width="143.88393"
       height="38.425964"
       id="page1"
       margin="0"
       bleed="0" />
  </sodipodi:namedview>
  <defs
     id="defs1" />
  <g
     inkscape:label="Layer 1"
     inkscape:groupmode="layer"
     id="layer1"
     transform="translate(-33.221363,-85.688762)">
    <g
       id="g1"
       transform="translate(5.7960865,-5.4306379)">
      <path
         id="path1-2-4-2-8-3"
         style="fill:#274698;fill-opacity:1;stroke-width:0.0523136"
         d="m 45.556289,96.55907 c -5.587532,0.01269 -5.444528,0.46584 -9.154743,6.89209 -4.240242,7.34435 -4.240242,6.42911 0,13.77346 3.531336,6.11643 3.590018,6.81948 8.403451,6.88431 l 0.965148,-3.77166 c -3.495212,-0.0471 -3.537845,-0.55753 -6.102072,-4.99892 -3.079002,-5.33296 -3.079002,-4.66846 0,-10.00145 2.694113,-4.66634 2.590372,-4.99532 6.64768,-5.0046 0.579613,-0.002 1.244113,0.004 2.013862,0.004 1.029028,0 1.857004,-0.008 2.558455,0.002 l 0.965038,-3.771168 c -0.966,-0.01292 -2.10626,-0.0023 -3.523389,-0.0023 -1.060062,0 -1.975209,-0.0072 -2.77343,-0.0051 z" />
      <path
         id="path1-2-4-6-9-5-9"
         style="fill:#ff7f2a;stroke-width:0.0523136"
         d="m 55.188202,96.564988 -0.965452,3.772912 3.05e-4,-0.002 c 3.495212,0.0471 3.537831,0.5576 6.102077,4.999 3.078986,5.33298 3.078986,4.66846 0,10.00146 -2.694129,4.66636 -2.590276,4.9952 -6.647592,5.00452 -0.579616,0.002 -1.244112,-0.004 -2.013861,-0.004 -1.029034,0 -1.857096,0.008 -2.558559,-0.002 l -3.04e-4,0.002 -0.964736,3.76996 c 0.966006,0.0129 2.106263,0.002 3.523392,0.002 1.06006,0 1.975207,0.007 2.773425,0.005 5.58754,-0.0127 5.444533,-0.46582 9.15475,-6.89211 4.240245,-7.34432 4.240245,-6.4291 0,-13.77343 -3.531345,-6.116436 -3.590018,-6.81949 -8.403454,-6.884302 z" />
      <text
         xml:space="preserve"
         style="font-style:normal;font-variant:normal;font-weight:800;font-stretch:normal;font-size:19.7569px;font-family:Cantarell;-inkscape-font-specification:'Cantarell Ultra-Bold';fill:#274698;fill-opacity:1;stroke-width:0.382526"
         x="68.388191"
         y="110.45889"
         id="text1-5-3-8-9-8-3-7"><tspan
           sodipodi:role="line"
           id="tspan1-4-8-4-6-9-9-2"
           x="68.388191"
           y="110.45889"
           style="font-style:normal;font-variant:normal;font-weight:800;font-stretch:normal;font-size:19.7569px;font-family:Cantarell;-inkscape-font-specification:'Cantarell Ultra-Bold';fill:#274698;fill-opacity:1;stroke-width:0.382526">SEMCITEC</tspan></text>
      <text
         xml:space="preserve"
         style="font-style:normal;font-variant:normal;font-weight:300;font-stretch:normal;font-size:17.2652px;font-family:Cantarell;-inkscape-font-specification:'Cantarell Light';fill:#e9681f;fill-opacity:1;stroke-width:0.3217"
         x="67.959763"
         y="123.94208"
         id="text1-7-7-8-7-10-2-4-5"><tspan
           sodipodi:role="line"
           id="tspan1-9-6-3-2-4-8-1-8"
           x="67.959763"
           y="123.94208"
           style="font-style:normal;font-variant:normal;font-weight:300;font-stretch:normal;font-size:17.2652px;font-family:Cantarell;-inkscape-font-specification:'Cantarell Light';fill:#e9681f;fill-opacity:1;stroke-width:0.3217">SYSTEM</tspan></text>
      <path
         style="fill:#ffff00;fill-opacity:1;stroke:#ff7f2a;stroke-width:0.717097;stroke-linecap:square;stroke-linejoin:miter;stroke-miterlimit:4;stroke-dasharray:none;stroke-dashoffset:0;stroke-opacity:1;paint-order:fill markers stroke"
         d="m 60.24855,103.51976 -12.373608,7.14391"
         id="path23-5-9" />
      <circle
         style="fill:#ff7f2a;fill-opacity:1;stroke:none;stroke-width:0.471567;stroke-linecap:square;stroke-linejoin:miter;stroke-miterlimit:4;stroke-dasharray:none;stroke-dashoffset:0;stroke-opacity:1;paint-order:fill markers stroke"
         id="path24-4-0"
         cx="14.648421"
         cy="-119.77499"
         r="2.2872291"
         transform="rotate(150)" />
      <path
         style="fill:#ffff00;fill-opacity:1;stroke:#274698;stroke-width:0.717097;stroke-linecap:square;stroke-linejoin:miter;stroke-miterlimit:4;stroke-dasharray:none;stroke-dashoffset:0;stroke-opacity:1;paint-order:fill markers stroke"
         d="m 41.606716,119.43132 9.679583,-5.58847"
         id="path23-37-15-2" />
      <circle
         style="fill:#274698;fill-opacity:1;stroke:none;stroke-width:0.717097;stroke-linecap:square;stroke-linejoin:miter;stroke-miterlimit:4;stroke-dasharray:none;stroke-dashoffset:0;stroke-opacity:1;paint-order:fill markers stroke"
         id="path24-9-5-4"
         cx="-10.073949"
         cy="124.23399"
         r="2.2872291"
         transform="rotate(-29.999999)" />
      <path
         style="fill:#ffff00;fill-opacity:1;stroke:#274698;stroke-width:0.717097;stroke-linecap:square;stroke-linejoin:miter;stroke-miterlimit:4;stroke-dasharray:none;stroke-dashoffset:0;stroke-opacity:1;paint-order:fill markers stroke"
         d="m 37.032249,111.50811 9.679572,-5.58849"
         id="path23-37-1-4-7" />
      <circle
         style="fill:#274698;fill-opacity:1;stroke:none;stroke-width:0.717097;stroke-linecap:square;stroke-linejoin:miter;stroke-miterlimit:4;stroke-dasharray:none;stroke-dashoffset:0;stroke-opacity:1;paint-order:fill markers stroke"
         id="path24-9-7-9-6"
         cx="-10.073949"
         cy="115.08503"
         r="2.2872291"
         transform="rotate(-29.999999)" />
    </g>
  </g>
</svg>
